<svg xmlns="http://www.w3.org/2000/svg" width="26" height="24" viewBox="343.5 62 26 24" fill="none"><g>
<g>
<g>
<rect x="343.5" y="66" width="26" height="2" rx="1" fill="#0F1419"/>
<rect x="343.5" y="80" width="26" height="2" rx="1" fill="#0F1419"/>
<g>
<path d="M348.5 85V77C348.5 76.7348 348.62 76.4804 348.835 76.2929C349.049 76.1054 349.34 76 349.643 76H355.357C355.66 76 355.951 76.1054 356.165 76.2929C356.38 76.4804 356.5 76.7348 356.5 77V85L353.118 83.0975C352.934 82.9937 352.719 82.9385 352.5 82.9385C352.281 82.9385 352.066 82.9937 351.882 83.0975L348.5 85Z" stroke="#0F1419" stroke-width="2" stroke-linecap="round" stroke-linejoin="round"/>
<rect x="349.5" y="80" width="6" height="2" fill="#FAFAFA"/>
</g>
<g>
<path d="M360.763 70.6833L363.75 67.6236C364.235 67.1144 364.504 66.4301 364.5 65.7189C364.495 65.0077 364.218 64.327 363.726 63.8241C363.235 63.3213 362.57 63.0368 361.876 63.0324C361.181 63.0279 360.513 63.3038 360.016 63.8003C359.771 63.5475 359.48 63.3466 359.159 63.2092C358.838 63.0719 358.494 63.0008 358.146 63C357.799 62.9992 357.454 63.0688 357.133 63.2047C356.811 63.3406 356.519 63.5402 356.273 63.7919C356.028 64.0437 355.833 64.3428 355.7 64.6719C355.567 65.001 355.499 65.3537 355.5 65.7098C355.501 66.0659 355.57 66.4183 355.704 66.7468C355.838 67.0753 356.035 67.3735 356.282 67.6242L359.269 70.6833C359.467 70.8861 359.736 71 360.016 71C360.296 71 360.565 70.8861 360.763 70.6833Z" stroke="#0F1419" stroke-width="2" stroke-linecap="round" stroke-linejoin="round"/>
<path d="M356.5 66H363.5L361 69H359L356.5 66Z" fill="#FAFAFA"/>
</g>
</g>
</g>
</g></svg>
