<svg width="20.6" height="20.6" viewBox="16.85 0.00 20.6 20.6" fill="none" xmlns="http://www.w3.org/2000/svg">
<g id="Frame 453">
<path id="Vector" d="M36.3 18.2881V8.4119C36.3 8.23152 36.2587 8.05362 36.1792 7.89229C36.0998 7.73095 35.9845 7.59061 35.8425 7.48238L27.8362 1.38238C27.6383 1.23154 27.3975 1.15 27.15 1.15C26.9025 1.15 26.6617 1.23154 26.4637 1.38238L18.4575 7.48238C18.3155 7.59061 18.2002 7.73095 18.1207 7.89229C18.0413 8.05362 18 8.23152 18 8.4119V18.2881C18 18.5963 18.1205 18.8918 18.335 19.1097C18.5495 19.3276 18.8404 19.45 19.1437 19.45H23.7187C24.0221 19.45 24.313 19.3276 24.5275 19.1097C24.742 18.8918 24.8625 18.5963 24.8625 18.2881V14.8024C24.8625 14.4942 24.983 14.1987 25.1975 13.9808C25.412 13.7629 25.7029 13.6405 26.0062 13.6405H28.2937C28.5971 13.6405 28.888 13.7629 29.1025 13.9808C29.317 14.1987 29.4375 14.4942 29.4375 14.8024V18.2881C29.4375 18.5963 29.558 18.8918 29.7725 19.1097C29.987 19.3276 30.2779 19.45 30.5812 19.45H35.1562C35.4596 19.45 35.7505 19.3276 35.965 19.1097C36.1795 18.8918 36.3 18.5963 36.3 18.2881Z" fill="#0F1419" stroke="#0F1419" stroke-width="2.3" stroke-linecap="round" stroke-linejoin="round"/>
</g>
</svg>
